# File created by Blade
# Date/Time:  Thu Jan 22 18:25:17 2015
#---------------------------------------------------------
:version 1.10
:name HOM
:units
  mass 1.0
  length 1.000000
  angle deg
:documentation
     Acclaim Skeleton File
:root
   axis xyz
   order TX TY TZ RX RY RZ
   position 0.000000 0.000000 0.000000
   orientation 0 0 0
:bonedata
   begin
      id 1
      name RightUpLeg_dum
      direction -1.000000 0.000000 0.000000
      length 4.478084
      axis 0.0 0.0 0.0 xyz
   end
   begin
      id 2
      name LeftUpLeg_dum
      direction 1.000000 0.000000 0.000000
      length 4.478084
      axis 0.0 0.0 0.0 xyz
   end
   begin
      id 3
      name Spine_dum
      direction 0.000000 1.000000 0.000000
      length 6.068208
      axis 0.0 0.0 0.0 xyz
   end
   begin
      id 4
      name RightUpLeg
      direction 0.000000 -1.000000 0.000000
      length 16.405774
      axis 0.0 0.0 0.0 xyz
      dof rx ry rz
   end
   begin
      id 5
      name RightLeg
      direction 0.000000 -1.000000 0.000000
      length 14.644143
      axis 0.0 0.0 0.0 xyz
      dof rx ry rz
   end
   begin
      id 6
      name RightFoot
      direction 0.000000 -0.258819 0.965926
      length 5.806150
      axis 15.0 0.0 0.0 xyz
      dof rx ry rz
   end
   begin
      id 7
      name RightToeBase
      direction 0.000000 0.000000 1.000000
      length 2.952750
      axis 0.0 0.0 0.0 xyz
      dof rx ry rz
   end
   begin
      id 8
      name LeftUpLeg
      direction 0.000000 -1.000000 0.000000
      length 16.405774
      axis 0.0 0.0 0.0 xyz
      dof rx ry rz
   end
   begin
      id 9
      name LeftLeg
      direction 0.000000 -1.000000 0.000000
      length 14.644143
      axis 0.0 0.0 0.0 xyz
      dof rx ry rz
   end
   begin
      id 10
      name LeftFoot
      direction 0.000000 -0.258819 0.965926
      length 5.806150
      axis 15.0 0.0 0.0 xyz
      dof rx ry rz
   end
   begin
      id 11
      name LeftToeBase
      direction 0.000000 0.000000 1.000000
      length 2.952750
      axis 0.0 0.0 0.0 xyz
      dof rx ry rz
   end
   begin
      id 12
      name Spine
      direction 0.000000 1.000000 0.000000
      length 0.000000
      axis 0.0 0.0 0.0 xyz
      dof rx ry rz
   end
   begin
      id 13
      name Spine_dum1
      direction 0.000000 1.000000 0.000000
      length 10.013923
      axis 0.0 0.0 0.0 xyz
   end
   begin
      id 14
      name Spine_dum2
      direction 0.000000 1.000000 0.000000
      length 10.013923
      axis 0.0 0.0 0.0 xyz
   end
   begin
      id 15
      name Spine_dum3
      direction 0.000000 1.000000 0.000000
      length 15.777476
      axis 0.0 0.0 0.0 xyz
   end
   begin
      id 16
      name RightShoulder
      direction -1.000000 0.000000 0.000000
      length 7.190220
      axis 0.0 0.0 90.0 xyz
      dof rx ry rz
   end
   begin
      id 17
      name RightArm
      direction -1.000000 0.000000 0.000000
      length 10.177469
      axis 0.0 0.0 90.0 xyz
      dof rx ry rz
   end
   begin
      id 18
      name RightForeArm
      direction -1.000000 0.000000 0.000000
      length 8.392114
      axis 0.0 0.0 90.0 xyz
      dof ry rz rx
   end
   begin
      id 19
      name RightHand
      direction -1.000000 0.000000 0.000000
      length 0.000000
      axis 0.0 0.0 90.0 xyz
      dof rx ry rz
   end
   begin
      id 20
      name RightHand_dum1
      direction -1.000000 0.000000 0.000000
      length 3.937000
      axis 0.0 0.0 90.0 xyz
   end
   begin
      id 21
      name RightHand_dum2
      direction 0.000000 0.000000 0.000000
      length 0.000000
      axis 0.0 0.0 90.0 xyz
   end
   begin
      id 22
      name RightHandThumb1
      direction 0.000000 0.000000 1.000000
      length 3.937000
      axis 0.0 0.0 90.0 xyz
      dof rx rz ry
   end
   begin
      id 23
      name LeftShoulder
      direction 1.000000 0.000000 0.000000
      length 7.190220
      axis 0.0 0.0 -90.0 xyz
      dof rx ry rz
   end
   begin
      id 24
      name LeftArm
      direction 1.000000 0.000000 0.000000
      length 10.177469
      axis 0.0 0.0 -90.0 xyz
      dof rx ry rz
   end
   begin
      id 25
      name LeftForeArm
      direction 1.000000 0.000000 0.000000
      length 8.392114
      axis 0.0 0.0 -90.0 xyz
      dof ry rz rx
   end
   begin
      id 26
      name LeftHand
      direction 1.000000 0.000000 0.000000
      length 0.000000
      axis 0.0 0.0 -90.0 xyz
      dof rx ry rz
   end
   begin
      id 27
      name LeftHand_dum1
      direction 1.000000 0.000000 0.000000
      length 3.937000
      axis 0.0 0.0 -90.0 xyz
   end
   begin
      id 28
      name LeftHand_dum2
      direction 0.000000 0.000000 0.000000
      length 0.000000
      axis 0.0 0.0 -90.0 xyz
   end
   begin
      id 29
      name LeftHandThumb1
      direction 0.000000 0.000000 1.000000
      length 3.937000
      axis 0.0 0.0 -90.0 xyz
      dof rx rz ry
   end
   begin
      id 30
      name Head
      direction 0.000000 1.000000 0.000000
      length 4.527550
      axis 0.0 0.0 0.0 xyz
      dof rx ry rz
   end
:hierarchy
   begin
      root RightUpLeg_dum LeftUpLeg_dum Spine_dum
      RightUpLeg_dum RightUpLeg
      LeftUpLeg_dum LeftUpLeg
      Spine_dum Spine
      RightUpLeg RightLeg
      RightLeg RightFoot
      RightFoot RightToeBase
      LeftUpLeg LeftLeg
      LeftLeg LeftFoot
      LeftFoot LeftToeBase
      Spine Spine_dum1 Spine_dum2 Spine_dum3
      Spine_dum1 RightShoulder
      Spine_dum2 LeftShoulder
      Spine_dum3 Head
      RightShoulder RightArm
      RightArm RightForeArm
      RightForeArm RightHand
      RightHand RightHand_dum1 RightHand_dum2
      RightHand_dum2 RightHandThumb1
      LeftShoulder LeftArm
      LeftArm LeftForeArm
      LeftForeArm LeftHand
      LeftHand LeftHand_dum1 LeftHand_dum2
      LeftHand_dum2 LeftHandThumb1
   end

# File created by Blade
# Date/Time:  Thu Jan 22 18:25:10 2015
# Frame Rate: 120.000 fps
#------------------------------------------------------
:FULLY-SPECIFIED
:DEGREES
1000
root -3.015427 33.230085 0.408577 5.029255 0.373798 2.737436
RightUpLeg 3.218067 -6.482347 -1.947605
RightLeg -0.035840 -0.000000 0.000000
RightFoot -11.727372 -4.480785 3.630729
RightToeBase 5.609867 -0.000000 -0.000000
LeftUpLeg 2.072730 2.152885 1.182599
LeftLeg 1.712237 -0.000000 -0.000000
LeftFoot -10.374981 1.801214 -9.643307
LeftToeBase 8.461610 -0.000000 -0.000000
Spine -9.957769 -0.346740 -1.555415
RightShoulder -29.550528 20.996926 -61.486981
RightArm 123.569115 45.127470 88.973210
RightForeArm 4.994581 -0.000000 142.390308
RightHand 10.833054 -0.000000 -5.731185
RightHandThumb1 -24.326973 -0.000000 -32.862282
LeftShoulder -20.788567 -11.215886 53.060144
LeftArm 32.175148 -65.068165 -29.089695
LeftForeArm -60.127557 -0.000000 114.763015
LeftHand -17.901451 -0.000000 2.096371
LeftHandThumb1 -26.253704 0.000000 33.147579
Head 20.979558 -5.503710 -3.726362
1001
root -3.016096 33.229589 0.408815 5.020209 0.364606 2.735898
RightUpLeg 3.217309 -6.461953 -1.945486
RightLeg -0.016408 -0.000000 0.000000
RightFoot -11.741034 -4.493811 3.644455
RightToeBase 5.590118 -0.000000 -0.000000
LeftUpLeg 2.081024 2.177010 1.187651
LeftLeg 1.718881 -0.000000 -0.000000
LeftFoot -10.376936 1.771684 -9.645780
LeftToeBase 8.456293 -0.000000 -0.000000
Spine -9.965223 -0.379859 -1.562940
RightShoulder -29.533010 21.129988 -61.515379
RightArm 123.407872 45.093105 88.896465
RightForeArm 5.049183 0.000000 142.366918
RightHand 10.801443 0.000000 -5.596386
RightHandThumb1 -24.326973 -0.000000 -32.862282
LeftShoulder -20.776973 -11.204046 53.102668
LeftArm 32.163666 -65.046256 -29.070943
LeftForeArm -60.130417 -0.000000 114.742073
LeftHand -17.862501 -0.000000 2.104581
LeftHandThumb1 -26.253704 0.000000 33.147579
Head 21.039170 -5.446723 -3.663817
1002
root -3.016334 33.229511 0.409611 5.008533 0.359021 2.731898
RightUpLeg 3.223999 -6.470186 -1.945111
RightLeg -0.004093 -0.000000 0.000000
RightFoot -11.745428 -4.481775 3.638729
RightToeBase 5.556459 -0.000000 -0.000000
LeftUpLeg 2.093292 2.173026 1.191934
LeftLeg 1.722387 -0.000000 -0.000000
LeftFoot -10.370321 1.759638 -9.706195
LeftToeBase 8.386934 -0.000000 -0.000000
Spine -9.989502 -0.347042 -1.556011
RightShoulder -29.518189 21.122787 -61.525836
RightArm 123.307849 45.061479 88.831713
RightForeArm 5.063675 0.000000 142.320976
RightHand 10.822435 -0.000000 -5.600049
RightHandThumb1 -24.326973 -0.000000 -32.862282
LeftShoulder -20.706785 -11.236533 53.076291
LeftArm 32.209337 -65.017023 -29.069037
LeftForeArm -60.116465 0.000000 114.701569
LeftHand -17.834152 -0.000000 2.045574
LeftHandThumb1 -26.253704 0.000000 33.147579
Head 21.159882 -5.439537 -3.669884
1003
root -3.015784 33.229343 0.410255 4.998867 0.356356 2.735559
RightUpLeg 3.232879 -6.463632 -1.950308
RightLeg -0.001440 -0.000000 0.000000
RightFoot -11.754185 -4.477045 3.656997
RightToeBase 5.577133 -0.000000 -0.000000
LeftUpLeg 2.102894 2.170371 1.186479
LeftLeg 1.723901 -0.000000 -0.000000
LeftFoot -10.384925 1.786758 -9.639036
LeftToeBase 8.469146 -0.000000 -0.000000
Spine -10.025542 -0.302190 -1.557942
RightShoulder -29.492468 21.116654 -61.559111
RightArm 123.157896 45.045768 88.718189
RightForeArm 5.007723 0.000000 142.268952
RightHand 10.793170 0.000000 -5.582936
RightHandThumb1 -24.326973 -0.000000 -32.862282
LeftShoulder -20.612343 -11.184694 52.972461
LeftArm 32.423244 -65.062087 -29.150494
LeftForeArm -60.119543 -0.000000 114.633505
LeftHand -17.908049 -0.000000 2.076257
LeftHandThumb1 -26.253704 0.000000 33.147579
Head 21.318297 -5.452654 -3.683914
1004
root -3.014992 33.230472 0.410249 4.977320 0.348721 2.725954
RightUpLeg 3.243730 -6.455695 -1.945945
RightLeg 0.017445 -0.000000 -0.000000
RightFoot -11.751472 -4.473641 3.647782
RightToeBase 5.599674 -0.000000 -0.000000
LeftUpLeg 2.123866 2.179080 1.194144
LeftLeg 1.727710 -0.000000 -0.000000
LeftFoot -10.388894 1.789738 -9.657034
LeftToeBase 8.467315 -0.000000 -0.000000
Spine -10.055953 -0.161576 -1.525464
RightShoulder -29.477127 20.941458 -61.581229
RightArm 123.164390 45.046445 88.690590
RightForeArm 5.056207 -0.000000 142.182520
RightHand 10.832200 0.000000 -5.659955
RightHandThumb1 -24.326973 -0.000000 -32.862282
LeftShoulder -20.480811 -11.344126 52.822227
LeftArm 32.571368 -64.955566 -29.124157
LeftForeArm -60.070210 -0.000000 114.532307
LeftHand -17.848317 -0.000000 1.974066
LeftHandThumb1 -26.253704 0.000000 33.147579
Head 21.525755 -5.520924 -3.787400
1005
root -3.017970 33.229612 0.408562 4.975561 0.333720 2.722226
RightUpLeg 3.226533 -6.442803 -1.935911
RightLeg 0.045319 -0.000000 -0.000000
RightFoot -11.766863 -4.487039 3.623645
RightToeBase 5.594971 -0.000000 -0.000000
LeftUpLeg 2.121236 2.186500 1.204744
LeftLeg 1.738853 -0.000000 -0.000000
LeftFoot -10.396458 1.771827 -9.648639
LeftToeBase 8.454599 -0.000000 -0.000000
Spine -10.069763 -0.214474 -1.552793
RightShoulder -29.447267 21.112853 -61.595613
RightArm 122.927688 44.993137 88.584111
RightForeArm 5.107498 -0.000000 142.135406
RightHand 10.838942 -0.000000 -5.668970
RightHandThumb1 -24.326973 -0.000000 -32.862282
LeftShoulder -20.543206 -11.364149 52.903347
LeftArm 32.722743 -64.814335 -29.216212
LeftForeArm -60.043052 0.000000 114.464969
LeftHand -17.835545 -0.000000 1.893606
LeftHandThumb1 -26.253704 0.000000 33.147579
Head 21.617472 -5.437785 -3.663536
